<?xml version="1.0" encoding="UTF-8"?>
<svg id="_레이어_2" data-name="레이어 2" xmlns="http://www.w3.org/2000/svg" viewBox="0 0 1820.47 624.42">
  <defs>
    <style>
      .cls-1 {
        fill: none;
        stroke: #000;
        stroke-miterlimit: 10;
      }
    </style>
  </defs>
  <path class="cls-1" d="M.17,.47S85.17,30.47,105.17,31.47s79.15,3,102.57,0,89.43,13,91.43,50-81,50-81,50c0,0-107,23-128,55s1,69,1,69c0,0,36,35,62,23s22-21,22-21c0,0-19-17-58,28s13,111,38,127,63,32,102,13,56-27,67-38,48-14,45,28-6,62-9,75,5.34,78.37,9.17,80.69-11.17-1.69-11.17-1.69c0,0-6-49-6-56s2-39,4-44,8-89-6-95c0,0-17-20-22-18s-2-13-2-13l15-5-8-10s0,16-13,9l-2,4-16-1s-7,6-10,5-13-6-13-6c0,0-88,28-85,46s38-13,38-13c0,0,21-19,30-20s-14,10-14,10c0,0-22,10-19,17s11-2,11-2c0,0-19,14-12,26s38-37,56-43c0,0-42,32-42,46s37-21,37-21c0,0,21-16,21-25,0,0-11-1-9,23s18,4,18,4c0,0-9-15-6-21s-5,19,7,18,15-23,15-23l2-13s28,4,33,10,11-21-15-23h50l-26-8s46,2,56-4-29-7-29-7c0,0,25,1,42,5s42,0,42,0c0,0-58-20-81-8h-10s77-21,84-29-36-2-41,8c0,0,10-13,41-15,0,0-12-8-20-3l9-3s-20-7-28,0-33,32-55,32c0,0,70-50,76-64,0,0-54.48,9.41-78.24,46.7,0,0,20.24-22.7,27.24-35.7s8-15,8-16-23,3-39,44c0,0,11-44,22-53,0,0-29-10-32,48,0,0,0-38,6-44s-26-4-32,47c0,0,8-28,7-32s-20,6-9,31c0,0-10-41-17-39s-10,17-7,43c0,0-24-26-28-33s-12.7,22.41,6.65,39.7c0,0-22.65-32.7-41.65-22.7l19,25s-24-24-51-15c0,0,11,25,48,28,0,0-38-15-44-11s-18-2-18-2c0,0-6,8,17,10,0,0-20,1-22,11l56,8s-22,1-24,4-34-9-56,11l43,3s-37-6-44,5c0,0,32-1,39-3s-45,8-48,16,93-3,93-3c0,0,22-12,24-16s6-2,6-2c0,0-10-5-7-15s1-9,1-9c0,0,2-9,17,0s22,0,22,0l-15,1s-1.41-21.82,21.8-12.91c0,0-1.8,14.91-13.8,13.91s11-2,11-2c0,0,4-14,4-16s19,0,19,0c0,0,5-6,16,7s7,18,7,18l-8,6-1,5-6-5-4,6-8-5-5,14,28,63s3,51-6,83,14,90,14,90c0,0,32.44,11,46.72,0s57.28-43,30.28-45-22,33-6,46,43,3,46-2,22-11,47,4,36-8,36-8v-149.13s9-49.87,2-57.87c0,0-4,10-7,13s7-10,3-24-15-26-10-34-13,20-6,41-18-23-7-36c0,0,4-7,12-8,0,0-7,5-19-7s-8-57-8-57c0,0,17.33,33.08,19.17,41.04s2.83,24.96,11.83,22.96-30-86-35-88,19-9,19-9c0,0-10,39,7,41l15-11s-32-19-15-36,37-7,37-7l5,6s19-4,20,8c0,0-8-4-20-5s-37-4-39,9l6,3s14,16,34,11l1-6s-14-5-14-7,10-3,12,3,4,4,4,4c0,0,13-12-1-14s-27,0-29,5,29,16,29,16c0,0-33.21,19.09-38.35,26.27-.5,.7-.74,1.29-.65,1.73,1,5,1,12,12,20s11.76,6.04,11.76,6.04l-11.76,16.96s6,10,24,8,12,2,25-3,17-31,17-31v-20.65l11-14.35v-21.2s-9-17.8-24-11.8c0,0-2,6,13,10,0,0,4,10,0,20s-3,25-3,25c0,0-7,47-24,45s-6,4-6,4c0,0,23-28,23-50s-2-43-5-44-11,14-26,17-38,29-38,29c0,0,18,22,21,22s-5,15-5,15c0,0,1,8,5,10s-17-1-17-1c0,0,17-2,20,7s-10,55-17,56l22.8-48.22,3.2-6.78s7-12,18-4,13,30,13,30l15,16-1,9s-29-17-30-41c0,0,3,16-16,32l-1-29-5,128s-5,73,0,107c0,0,26,18,51,25s30,16,24,21-30,14-31-14c0,0,0-21,40-28s38,18,42,19,10,13,32-8,25-20,25-20c0,0,8-43,6-48s.32-61.8,.32-61.8c0,0,7.68-28.2-7.32-32.2s9.29,32.28,9.29,32.28c0,0,11.71-54.28,4.71-60.28s-18-26-16-31,3-21,13-23-69-57-79-54l18,3s-11-30-21-33c0,0,19,15,33,14l-14-12s23,11,25,17,3,11,9,14,2,16,2,16c0,0,4,9,10,10s10,1,10,1c0,0-11-14-14-14,0,0,16-1,15,12,0,0-1,4-14,3s13,3,13,3c0,0,5-13-14-29s-5-17-29-33c0,0-5-9-1-12s5-11,5-11c0,0,1,12,8,14s6-8,6-8c0,0,3,7,11,7l1-13s17,12,11,22-8,9-8,9c0,0,19,6,18,21s0,34,0,34c0,0,7,9,11,0,0,0-4-6-9-8s6-22,11-22,0,17.72,0,17.72c0,0,8-21.72-4-26.72s-19-38-19-38v-10s8,7,12,8c0,0,3-8,6-8s3,20,16,22c0,0,1-4-3-9s2-11,2-11c0,0,4,9,10,10s2,58,2,58l-19,24s12.61,.15,20.31-15.43,5.69-35.57,5.69-53.57,.23-20.5,.23-20.5l7.77,9.5,7-6s0,5,2,5h6s7,21,14,21v5.46l-14,8.54-.39,11.09s-20.61,9.91-19.61,13.91,21-12,21-12l20-28,1-7s10-2,10,1-9,5-9,5l12,3s-18,23-21,23,15.54,1.09,15.54,1.09l-21.54,3.91s25,1.59,27,5.8-46-7.8-75,32.2h-6l-1,8s-9-5-14-1-11,9-3,13,6-6,6-6c0,0,9,6,10,0s15,7,14,15-11,2-11,2l-5-6-3,6-6-7-2,9-6-8-3,5-6-1s8,4,15,17,13-6,13-6l5,7s8-8,6-17,3,15-9,22-7,38-7,38c0,0-3,25-6,33l-1,69s-5,55-2,63,40,3,46-3,11-5,14-18,41-23,51-5,13,28,42,22,49-18,43-40-9-35-10-68-4-79,6-97,19-54,14-62-16-7,0,8,24-12,24-12c0,0-6,15-13,11s-17.89-31.55-26.94-17.28,9.94,9.28-5.06-5.72-37-55-42-54,4-4,22,13,36,13,36,13c0,0,12.11,13.18,13.06,18.09s19.94,5.91,19.94,5.91l1.83,9.72h14.67s24.5,17.28,31.5,17.28,41,11,42,15,4-41-68-51c0,0,43.65,1.44,68.33,38.72,0,0,16.9-15.55-30.72-35.63,0,0-17.61-7.09-22.61-10.09s-11-10-11-10c0,0-2-6-6-4s-2,11,3,9,4-9,4-9l-9-3s-29-9-24-1,10,9,18,8,16-6,16-6c0,0-5-17-23-14s0,8,0,8c0,0-19-9-21-3s7,7,7,7c0,0,7,6,2,10s13,11,27,6-24-10-24-10c0,0-18-10-7,3s-9-6-9-6c0,0-38-1-59-22s8-21,8-21c0,0,34,6,46,24s6-20-19-21-17-19-16-19,20-19,50-1,47,13,47,13c0,0,34,2,1,49,0,0,23-10,24-43,0,0-1-8,12-4s32,3,33,23,10,49,1,59-33,2-33,2l-47-18s69,31,59,45c0,0-49-21-61-13,0,0-10,6-29-3,0,0,6,1,5,6s-21,10-26,40-17,21-14,81,2,86,3,89,21,36,46,25,55-33,25-61c0,0-18-11-29,5s25,31,25,31l85,24s23,17-3,55c0,0-41,2-2-23,0,0,63-8,72-11s30-9,30-9c0,0,1-23,9-37,0,0,8-39-13-52s-25-29-25-29c0,0,24-3,37,21l-2-28s-13-9-14-18,7-28,4-34,19,34,19,42-6-36-14-47-1-53-1-53c0,0,17-34,9-52s-48-11-48-11l44-32s14-2.89,10-21.94c0,0-7-6.06-14-3.06,0,0-5-5-8-3s0,22,0,22l-4-27s-10-2-5,27c0,0-9-1-8-23,0,0-21,6-20,10s8,30,27,31c0,0-24-22-32-21s-17,10-17,10c0,0,28,3,34,11s10,2,10,2l-19,14,11-11s-19-22-30-11,4,19,4,19l9-3-7-4,16-5s-10,17-1,24,46,8,46,8c0,0-3-32-7-33s-21,4-21,4l27-2s-9,14,4,21c0,0-9-24-3-29s21-1,21-1c0,0-10,14-8,30s14-33,14-33l-17,3s9-18,7-27,15-1,15-1c0,0-11,9-9,16l-9,9s17,0,30-9-12-13-12-13c0,0,15,2,14,14l5,2s-18,4-20,31c0,0,13-15,15-19s1,20,1,20c0,0-16,12-24,12s-12,8-12,25-8,40-11,41,1,38,1,38c0,0,18,35,8,55,0,0,16-9,27-4s26-5,26-5c0,0-11,22-26,22s-25-9-29,1-2,39,3,48,5,34-3,46-11,31,5,30,11-20,11-20c0,0,37-43,63-33s23,36,23,36c0,0,13,45,45,23v-43.76s5-12.24-2-17.24c0,0-1-12,10-3,0,0,10-19,10-29s-6-47-2-52,19-94,11-125c0,0-16-4-21,11,0,0,5-15,0-19s-8-3-8-3c0,0-8,14,0,24,0,0-10,7-11-13s8-14,8-14c0,0-31,10-40,7,0,0,9-2,15-8s21-2,21-2c0,0,13,14,27,12s37,1,39,13c0,0,4,2-27-8l-6-3s22-7,30-11c0,0,20.59,.18,31.8-5.91s29.2-4.09,29.2-4.09c0,0-31-12-41-6s-8,12-8,12c0,0-56-20-67-11s49.46,9.09,49.46,9.09c0,0-32.46-15.09-45.46-9.09s-3,6-3,6c0,0-21-19-24-27s-5,15,9,21h-7l1.43,9.09s10.57-4.09-7.43-9.09-13,3-21-8,1-22,6-24,11-1,15,5-7,0-7,0l-2-33s-4,15,8,22,12,23,37,25-17,5-12,5,62-6,62-6c0,0,3-9,11-10s25-3,25-3l-17,26s-5-3-5-8,1-10,1-10l8,6s15-10,13-19-18-7-23-18c0,0-28,35-52,38l-10,1s6-16-12-21-29-29-29-29l3,26s0-26-8-29,4-10,4-10c0,0,4,4,23,5s17,3,17,3c0,0-22,3-34,0,0,0,9,23,13,26s54,1,54,1c0,0-14-6-24-5s-17-1-13-14,38,1,38,1c0,0,9,13-4,13s-22-7-27-11,3-5,8-4,21,6,20,8-10,8-13,2,0-7,3-5,14,13,19,12,14-2,5-12-32-22-40-14,1-7,1-7c0,0,12-1,18-9s27,3,27,3c0,0,20,14,22,18s5,14,12,19-3,4-3,4c0,0-18-6-21-10s12-8-3-16-27-4-27-4c0,0,26,17,18,27s-45,322-45,322c0,0-5-57,24-76s32-34,32-34c0,0,11,35,51,20s40-5,56-22c0,0-33-2-52,4s-40-7-40-7c0,0,40,10,89-1,0,0-16-20-41-21s0,12-46,6c0,0,40-4,55-13s17-12,17-12l-6-1,6-3-1-6,5-5-2-5,6-3v-6l7-7-2-13-3-4-8,3-1-18s-59,79-69,80c0,0,47-70,59-78,0,0-13,1-14,3s-11-1-11-1v4l-16,1-6,5h-10l-6,6h-6l-16,25v9s-6,7-3,12l-2,4s12,20,18,20c0,0-4,16-16,24s-28,26-28,26c0,0-7-45-5-50s15-62,9-76c0,0,5-16,35-21s89-25,97-29,39-22,44-43,4-47-42-45c0,0-32,22,9,40s71-27,71-27c0,0,32.22-65,11.61-86.5s-45.61-50.5-28.61-66.5,50-34,70-34,82,20,126-14"/>
</svg>